<?xml version="1.0" encoding="utf-8"?>
<!-- Generator: Adobe Illustrator 27.0.1, SVG Export Plug-In . SVG Version: 6.00 Build 0)  -->
<svg version="1.1" id="Layer_1" xmlns="http://www.w3.org/2000/svg" xmlns:xlink="http://www.w3.org/1999/xlink" x="0px" y="0px"
	 viewBox="0 0 607.8 423.8" style="enable-background:new 0 0 607.8 423.8;" xml:space="preserve">
<style type="text/css">
	.st0{fill:#818991;}
	.st1{fill:#FFFFFF;}
	.st2{fill:#0057FF;}
</style>
<g>
	<path class="st0" d="M445.5,417.8c-21,0-38.1-2.3-50.7-6.9c-12.4-4.5-23.1-9.3-31.8-14.2c-9.8-6.3-15.3-7.7-18.2-7.7
		c-2.9,0-5,1.7-6.5,5.1c-0.6,1.4-1,3-1.4,4.9l-1.5,7.4L290.4,241h6.1c13.4,0,25.8-0.2,36.7-0.6c9.9-0.3,19.1-0.6,27.3-1.1l1.9-0.1
		v14.8l-1.7,0.1c-7.5,0.4-13.2,1.6-16.9,3.7c-2.1,1.2-3.7,3.1-4.9,5.7c-0.9,1.8-1.6,4-2.1,6.6c-0.1,0.5-0.2,1.1-0.3,1.7
		c1.5,22.7,5.7,44.3,12.5,64.3c6.8,19.8,17.5,36,31.6,47.9c14.1,11.9,33.1,17.9,56.6,17.9c12.5,0,24.1-2.4,34.7-7.1
		c10.4-4.7,19.1-12.3,25.6-22.4c6.5-10.2,9.8-23.5,9.8-39.5c0-14.9-3.6-28.2-10.7-39.6c-7.2-11.5-17-21.9-30-31.9
		c-12.7-9.8-27.9-20-45.1-30.6c-16.8-10.7-33.5-22.1-49.6-33.8c-15.4-11.3-28-24.8-37.3-39.9c-2.3-3.7-4.3-7.5-5.9-11.3
		c-0.1-0.2-0.2-0.3-0.2-0.5c-0.1-0.2-0.1-0.3-0.2-0.5c-0.1-0.2-0.2-0.5-0.3-0.8l0-0.1c-0.1-0.3-0.2-0.5-0.3-0.8
		c-0.1-0.3-0.3-0.7-0.4-1l0-0.1c0-0.1-0.1-0.2-0.1-0.3c-4.4-11.7-6.6-24.8-6.6-39c0-23.2,5.5-42.5,16.3-57.2l3-3.9
		c10.6-13,23.4-22.6,39.3-29.3c17.3-7.2,36-10.8,55.6-10.8c19.9,0,35.5,2.3,46.2,6.8c10.4,4.5,19.8,9.4,27.8,14.7
		c4.6,2.7,8.2,4.6,10.8,5.8c2.7,1.2,5.2,1.8,7.5,1.8c3.1,0,5.1-1.6,6.6-5.1c1.6-4,3-10.2,4.1-18.2l0.2-1.5h16.3l-0.1,1.9
		c-0.1,2.2-0.3,4.5-0.4,6.9c-0.3,5-0.6,10.7-1,17c-0.5,9.9-0.9,22.1-1.1,36.2c-0.2,14.8-0.3,34.6-0.3,59v1.8H535l-0.1-1.7
		c-1.1-17.8-5.1-35.6-12-52.9c-6.9-17.1-17-31-29.9-41.5c-13-10.6-29.7-15.9-49.8-15.9c-18.5,0-34.1,5.6-46.3,16.7
		c-12.2,11.1-18.3,25.9-18.3,44c0,16.1,4.1,29.6,12,40.3c8.1,10.9,19.4,21.2,33.6,30.5c14.3,9.6,30.9,20.3,49.2,31.8
		c18.9,12.1,35.9,24.1,50.8,35.8c15,11.8,27.1,25.1,35.8,39.6c8.7,14.5,13.2,32.2,13.3,52.8c0,24.7-5.9,45.4-17.4,61.5
		c-11.6,16.1-27.3,28.3-46.7,36.3C490,413.8,468.6,417.8,445.5,417.8z"/>
	<path class="st1" d="M434.7,3.1c19.9,0,35.1,2.3,45.5,6.7c10.5,4.5,19.7,9.4,27.6,14.6c4.5,2.6,8.2,4.6,11,5.9c2.9,1.3,5.6,2,8.2,2
		c3.8,0,6.5-2,8.2-6.2s3.1-10.4,4.2-18.6h12.9c-0.4,6.8-0.8,14.7-1.4,23.9c-0.5,9.2-0.9,21.3-1.1,36.3c-0.2,14.9-0.3,34.6-0.3,59
		h-12.8c-1.1-18.3-5.2-36.1-12.1-53.4c-7-17.2-17.1-31.4-30.4-42.2c-13.3-10.8-30.3-16.3-50.9-16.3c-19.1,0-35,5.8-47.5,17.2
		c-12.6,11.5-18.9,26.6-18.9,45.3c0,16.5,4.1,30.3,12.4,41.4c8.2,11,19.6,21.4,34,30.9c14.4,9.6,30.8,20.2,49.2,31.8
		c18.7,12,35.6,23.9,50.6,35.7s26.8,24.9,35.4,39.1c8.6,14.3,12.9,31.6,13,51.9c0,24.4-5.7,44.6-17.1,60.5
		c-11.5,15.9-26.8,27.8-45.9,35.7c-19.1,7.9-40.1,11.8-63,11.8c-21,0-37.7-2.3-50.1-6.8c-12.4-4.5-22.9-9.2-31.5-14.1
		c-8.2-5.3-14.6-7.9-19.1-7.9c-3.7,0-6.4,2.1-8.1,6.2c-0.6,1.5-1.1,3.2-1.5,5.2l-42.5-155.9c1.2,0,2.6,0,3.8,0
		c13.5,0,25.8-0.2,36.8-0.6c11.1-0.3,20.2-0.7,27.3-1.1v11.2c-7.8,0.4-13.7,1.7-17.7,3.9c-2.4,1.4-4.3,3.5-5.7,6.5
		c-1,2-1.7,4.3-2.2,7c-0.1,0.6-0.2,1.3-0.3,2c1.5,23.1,5.7,44.7,12.6,64.9c7,20.3,17.7,36.5,32.1,48.7
		c14.5,12.2,33.7,18.3,57.7,18.3c12.7,0,24.5-2.4,35.4-7.3c10.8-4.9,19.6-12.6,26.4-23.1c6.7-10.5,10.1-24,10.1-40.5
		c0-15.4-3.7-28.9-11-40.5c-7.3-11.7-17.4-22.4-30.4-32.4c-13-10-28.1-20.2-45.3-30.7c-17.6-11.2-34.1-22.5-49.5-33.7
		C357.4,184.1,345.2,171,336,156c-2.2-3.5-4.2-7.3-5.8-11.2c0-0.1-0.1-0.1-0.1-0.2c-0.2-0.5-0.4-0.9-0.6-1.4
		c-0.2-0.6-0.5-1.2-0.7-1.8c0-0.1-0.1-0.2-0.1-0.3c-4.3-11.5-6.5-24.3-6.5-38.5c0-22.8,5.3-41.6,16-56.2c1-1.3,2-2.6,3-3.9
		c10.3-12.7,23.1-22.2,38.6-28.7C396.9,6.7,415.2,3.1,434.7,3.1 M434.7-0.5c-19.8,0-38.7,3.7-56.3,11c-16,6.7-29.4,16.7-40,29.7l0,0
		l0,0l-3,3.9l0,0l0,0c-11.1,15.1-16.7,34.7-16.7,58.3c0,14.3,2.2,27.6,6.6,39.5c0,0.2,0.1,0.3,0.1,0.4c0.1,0.4,0.3,0.8,0.4,1.1
		c0.1,0.2,0.2,0.5,0.3,0.7l0,0.1l0,0.1c0.1,0.3,0.2,0.6,0.4,0.8c0.1,0.1,0.1,0.3,0.2,0.4c0.1,0.2,0.2,0.4,0.3,0.6
		c1.6,3.9,3.6,7.7,6,11.5c9.4,15.3,22.1,28.9,37.7,40.4c16.1,11.7,32.8,23.1,49.7,33.8l0,0l0,0c17.2,10.5,32.4,20.8,45,30.5
		c12.8,9.9,22.5,20.2,29.6,31.5c6.9,11,10.5,24,10.5,38.6c0,15.7-3.2,28.7-9.5,38.6c-6.4,9.9-14.8,17.2-24.9,21.8
		c-10.3,4.6-21.7,7-33.9,7c-23,0-41.6-5.9-55.4-17.5c-13.8-11.7-24.3-27.6-31-47.1c-6.7-19.7-10.9-41.1-12.4-63.6
		c0.1-0.5,0.2-1.1,0.2-1.5c0.5-2.4,1.1-4.4,1.9-6l0,0l0,0c1-2.2,2.4-3.9,4.2-4.9c3.5-1.9,8.9-3.1,16.1-3.4l3.4-0.2v-3.4v-11.2v-3.7
		l-3.7,0.2c-8.2,0.5-17.3,0.8-27.2,1.1c-10.9,0.4-23.3,0.6-36.7,0.6h-3.8h-4.6l1.2,4.5l42.5,155.9l3.9,14.5l2.9-14.7
		c0.3-1.7,0.8-3.2,1.3-4.6c1.5-3.5,3.3-4,4.8-4c2.7,0,7.8,1.3,17.2,7.3l0.1,0.1l0.1,0c8.7,5,19.5,9.8,32,14.4
		c12.8,4.7,30.1,7,51.3,7c23.3,0,45-4.1,64.4-12.1c19.6-8.1,35.6-20.5,47.4-36.9c11.8-16.5,17.8-37.5,17.8-62.6
		c-0.1-20.9-4.6-39-13.5-53.7c-8.9-14.6-21.1-28.1-36.2-40.1c-14.9-11.7-32-23.8-50.9-35.9c-18.3-11.5-34.8-22.2-49.1-31.8
		c-14-9.2-25.1-19.3-33.1-30.1c-7.8-10.4-11.7-23.6-11.7-39.3c0-17.8,5.8-31.8,17.7-42.7c11.8-10.8,27-16.3,45.1-16.3
		c19.6,0,36,5.2,48.7,15.5c12.6,10.3,22.5,24,29.4,40.8c6.8,17,10.8,34.6,11.8,52.3l0.2,3.3h3.3h12.8h3.5v-3.5
		c0-24.3,0.1-44.1,0.3-59c0.2-14.1,0.6-26.2,1.1-36.2c0.4-6.2,0.7-11.9,1-16.9c0.1-2.5,0.3-4.8,0.4-7l0.2-3.8h-3.8h-12.9h-3.1
		L535.9,7c-1.1,7.9-2.4,13.8-4,17.7c-1.4,3.5-3.2,4-4.9,4c-2,0-4.2-0.6-6.8-1.7c-2.5-1.2-6-3-10.6-5.7C501.5,16,492.1,11,481.6,6.5
		C470.6,1.9,454.9-0.5,434.7-0.5L434.7-0.5z"/>
</g>
<g>
	<path class="st0" d="M194.6,421.6c-40.2,0-75.1-8.1-103.8-24.1c-28.7-16-50.8-39.5-65.7-69.9C10.3,297.3,2.7,260.8,2.7,219.1
		c0-43.5,8.3-81.8,24.6-113.8c16.3-31.9,39.1-57.1,67.5-74.7C123.3,13,156.4,4.1,193.4,4.1c24.8,0,45.3,3.8,61,11.2
		c15.6,7.4,29.9,16.1,42.5,25.8c3.3,2.4,6.6,3.8,10.1,5.2c4.7,1.7,9.3,2.6,13.7,2.6c1.6,0,3.1-0.1,4.6-0.3l3.5-0.5l-1.7,3.1
		c-7.7,14.1-11.7,31.2-11.8,51.1l0,8.7l-3.4-8c-4.6-11-8.9-19.7-13.5-27.6l-0.1-0.1c-0.1-0.2-0.2-0.3-0.3-0.5
		c-0.1-0.2-0.3-0.5-0.4-0.7c-10.3-17.3-22.2-29.9-36.5-38.7c-17.4-10.7-38.4-15.9-64.2-15.9c-19.1,0-36.2,4.7-50.7,14
		c-14.7,9.4-27.3,23-37.4,40.2c-10.2,17.5-18.1,38.2-23.4,61.6c-5.4,23.4-8.2,49.7-8.2,78.1c0,66.8,10.4,116.4,30.9,147.2
		c20.4,30.7,51.6,46.2,92.7,46.2c11.7,0,22-1.7,30.6-5c9.2-3.5,16-6.8,20.8-9.9c6-4.2,10-8.4,11.7-12.4c1.8-4,2.6-9.5,2.6-16.4
		v-54.6c0-15.8-1.4-27.6-4.1-35.1c-2.6-7.1-7.8-12-15.5-14.6c-8.1-2.7-20-4.3-35.5-4.7l-1.7,0v-14.8l1.8,0.1
		c8.7,0.4,17,0.6,25.3,0.8c9.8,0.2,20,0.4,30.7,0.6c0,0,0,0,0,0c1.2,0,2.4,0,3.6,0.1c1.1,0,2.3,0,3.4,0h1.4l39.6,144.8l-3.6-1.8
		c-0.3-0.2-0.5-0.4-0.7-0.5l-0.1-0.1c-1.5-1.1-2.9-1.6-4.5-1.6c-2.4,0-4.9,0.5-7.6,1.6c-2.8,1.2-7.8,4.2-14,8.3
		c-13.2,9-27.2,16.4-41.5,21.8C229.3,418.8,212.8,421.6,194.6,421.6z"/>
	<path class="st1" d="M193.4,5.9c24.8,0,44.8,3.7,60.2,11c15.4,7.3,29.5,15.8,42.2,25.6c3.5,2.6,7,4,10.5,5.4
		c4.9,1.8,9.8,2.8,14.4,2.8c1.6,0,3.3-0.1,4.8-0.4c-7.9,14.4-11.9,31.8-12,51.9c-4-9.5-8.4-18.9-13.6-27.8c-0.2-0.4-0.5-0.8-0.7-1.2
		c-18.4-31-46.6-55.5-102.3-55.5c-19.5,0-36.7,4.7-51.7,14.3c-15,9.6-27.7,23.2-38,40.8C96.9,90.4,89,111.1,83.6,134.9
		c-5.5,23.8-8.2,50-8.2,78.5c0,67.5,10.4,116.9,31.2,148.2c20.8,31.3,52.2,47,94.2,47c12,0,22.4-1.7,31.2-5.1s15.9-6.7,21.1-10.1
		c6.4-4.5,10.5-8.9,12.4-13.2c1.9-4.3,2.8-10,2.8-17.1v-54.6c0-16.1-1.4-28-4.2-35.7c-2.8-7.6-8.4-12.9-16.6-15.7
		c-8.3-2.8-20.2-4.4-36-4.8v-11.2c7.1,0.3,15.5,0.6,25.3,0.8c9.8,0.2,20,0.4,30.7,0.6c2.4,0,4.7,0.1,7,0.1l38.2,139.7
		c-0.2-0.1-0.3-0.3-0.5-0.4c-1.7-1.3-3.5-2-5.6-2c-2.7,0-5.4,0.6-8.2,1.7c-2.8,1.2-7.6,4-14.3,8.5c-13.2,9-26.9,16.2-41.1,21.6
		c-14.3,5.5-30.4,8.2-48.4,8.2c-40.1,0-74.4-8-102.9-23.9s-50.2-39-65-69.1C11.9,296.7,4.5,260.7,4.5,219.1
		c0-43.5,8.2-81.2,24.4-113c16.3-31.9,38.6-56.5,66.9-74C124.1,14.6,156.6,5.9,193.4,5.9 M193.4,2.3c-37.3,0-70.8,9-99.5,26.7
		c-28.8,17.8-51.7,43.2-68.2,75.4C9.3,136.7,1,175.3,1,219.1c0,42,7.6,78.8,22.6,109.4C38.6,359.1,61,382.9,90,399
		c29,16.2,64.2,24.3,104.6,24.3c18.4,0,35.1-2.8,49.7-8.4c14.4-5.5,28.5-12.9,41.8-22c8.1-5.5,12-7.5,13.7-8.1
		c2.5-1,4.7-1.4,6.9-1.4c1.2,0,2.3,0.4,3.4,1.3l0,0c0.2,0.2,0.6,0.5,1,0.7l7.1,3.5l-2.1-7.6l-38.2-139.7l-0.7-2.6h-2.7
		c-1.1,0-2.2,0-3.3,0c-1.2,0-2.4-0.1-3.6-0.1c-10.7-0.2-20.9-0.4-30.7-0.6c-8.3-0.2-16.5-0.4-25.2-0.8l-3.7-0.2v3.7v11.2v3.5
		l3.5,0.1c15.3,0.4,27,1.9,35,4.6c7.1,2.4,12,7,14.4,13.6c2.6,7.3,4,18.9,4,34.5v54.6c0,6.6-0.8,11.9-2.5,15.7
		c-1.6,3.7-5.4,7.6-11.1,11.7c-4.7,3.1-11.4,6.2-20.4,9.7c-8.3,3.2-18.4,4.9-29.9,4.9c-20.3,0-38.3-3.8-53.5-11.4
		c-15.1-7.5-27.8-19-37.8-34C89.2,329,78.9,279.8,78.9,213.4c0-28.3,2.7-54.4,8.1-77.7c5.3-23.3,13.1-43.8,23.2-61.1
		c9.9-17,22.3-30.3,36.9-39.6c14.4-9.2,30.7-13.7,49.8-13.7c25.5,0,46.2,5.1,63.3,15.6c14.1,8.6,25.8,21.1,35.9,38.1
		c0.2,0.3,0.3,0.5,0.4,0.8c0.1,0.1,0.1,0.2,0.2,0.3l0,0.1l0.1,0.1c4.5,7.8,8.8,16.5,13.4,27.4l6.7,16l0.1-17.3
		c0.1-19.5,4-36.4,11.6-50.2l3.5-6.3l-7.1,1.1c-1.4,0.2-2.8,0.3-4.3,0.3c-4.2,0-8.6-0.8-13.1-2.5c-3.4-1.3-6.5-2.6-9.6-4.9
		c-12.7-9.8-27.1-18.5-42.8-26C239.2,6.1,218.5,2.3,193.4,2.3L193.4,2.3z"/>
</g>
<circle class="st2" cx="558.7" cy="366.9" r="49.2"/>
</svg>
