<?xml version="1.0" encoding="utf-8"?>
<!-- Generator: Adobe Illustrator 26.5.0, SVG Export Plug-In . SVG Version: 6.00 Build 0)  -->
<svg version="1.1" id="Layer_1" xmlns="http://www.w3.org/2000/svg" xmlns:xlink="http://www.w3.org/1999/xlink" x="0px" y="0px"
	 viewBox="0 0 566.9 416.8" style="enable-background:new 0 0 566.9 416.8;" xml:space="preserve">
<style type="text/css">
	.st0{fill:#FFFFFF;}
</style>
<g>
	<path class="st0" d="M554,253.1c-8.6-14.2-20.4-27.3-35.4-39.1c-15-11.8-31.9-23.7-50.6-35.7c-18.4-11.6-34.8-22.2-49.2-31.8
		c-14.4-9.5-25.8-19.9-34-30.9c-8.3-11.1-12.4-24.9-12.4-41.4c0-18.7,6.3-33.8,18.9-45.3c12.5-11.4,28.4-17.2,47.5-17.2
		c20.6,0,37.6,5.5,50.9,16.3s23.4,25,30.4,42.2c6.9,17.3,11,35.1,12.1,53.4H545c0-24.4,0.1-44.1,0.3-59c0.2-15,0.6-27.1,1.1-36.3
		c0.6-9.2,1-17.1,1.4-23.9h-12.9c-1.1,8.2-2.5,14.4-4.2,18.6s-4.4,6.2-8.2,6.2c-2.6,0-5.3-0.7-8.2-2c-2.8-1.3-6.5-3.3-11-5.9
		c-7.9-5.2-17.1-10.1-27.6-14.6C465.3,2.3,450.1,0,430.2,0c-19.5,0-37.8,3.6-54.9,10.7c-15.5,6.5-28.3,16-38.6,28.7c0,0,0,0,0,0
		c-1,1.3-2,2.6-3,3.9c-10.7,14.6-16,33.4-16,56.2c0,14.2,2.2,27,6.5,38.5c0,0.1,0.1,0.2,0.1,0.3c0.2,0.6,0.5,1.2,0.7,1.8
		c0.2,0.5,0.4,0.9,0.6,1.4c0,0.1,0.1,0.1,0.1,0.2c1.6,3.9,3.6,7.7,5.8,11.2c9.2,15,21.4,28.1,36.8,39.4
		c15.4,11.2,31.9,22.5,49.5,33.7c17.2,10.5,32.3,20.7,45.3,30.7c13,10,23.1,20.7,30.4,32.4c7.3,11.6,11,25.1,11,40.5
		c0,16.5-3.4,30-10.1,40.5c-6.8,10.5-15.6,18.2-26.4,23.1c-10.9,4.9-22.7,7.3-35.4,7.3c-24,0-43.2-6.1-57.7-18.3
		c-14.4-12.2-25.1-28.4-32.1-48.7c-6.9-20.2-11.1-41.8-12.6-64.9c0.1-0.7,0.2-1.4,0.3-2c0.5-2.7,1.2-5,2.2-7c1.4-3,3.3-5.1,5.7-6.5
		c4-2.2,9.9-3.5,17.7-3.9V238c-7.1,0.4-16.2,0.8-27.3,1.1c-11,0.4-23.3,0.6-36.8,0.6c-1.2,0-2.6,0-3.8,0l42.5,155.9
		c0.4-2,0.9-3.7,1.5-5.2c1.7-4.1,4.4-6.2,8.1-6.2c4.5,0,10.9,2.6,19.1,7.9c8.6,4.9,19.1,9.6,31.5,14.1c12.4,4.5,29.1,6.8,50.1,6.8
		c22.9,0,43.9-3.9,63-11.8c19.1-7.9,34.4-19.8,45.9-35.7c11.4-15.9,17.1-36.1,17.1-60.5C566.9,284.7,562.6,267.4,554,253.1z"/>
	<path class="st0" d="M270,239.5c-2.3,0-4.6-0.1-7-0.1c-10.7-0.2-20.9-0.4-30.7-0.6c-9.8-0.2-18.2-0.5-25.3-0.8v11.2
		c15.8,0.4,27.7,2,36,4.8c8.2,2.8,13.8,8.1,16.6,15.7c2.8,7.7,4.2,19.6,4.2,35.7V360c0,7.1-0.9,12.8-2.8,17.1
		c-1.9,4.3-6,8.7-12.4,13.2c-5.2,3.4-12.3,6.7-21.1,10.1c-8.8,3.4-19.2,5.1-31.2,5.1c-42,0-73.4-15.7-94.2-47
		c-20.8-31.3-31.2-80.7-31.2-148.2c0-28.5,2.7-54.7,8.2-78.5c5.4-23.8,13.3-44.5,23.6-62.1c10.3-17.6,23-31.2,38-40.8
		c15-9.6,32.2-14.3,51.7-14.3c55.7,0,83.9,24.5,102.3,55.5c0.2,0.4,0.5,0.8,0.7,1.2c5.2,8.9,9.6,18.3,13.6,27.8
		c0.1-20.1,4.1-37.5,12-51.9c-5.9,0.9-12.5,0.1-19.2-2.4c-3.5-1.4-7-2.8-10.5-5.4c-12.7-9.8-26.8-18.3-42.2-25.6
		c-15.4-7.3-35.4-11-60.2-11c-36.8,0-69.3,8.7-97.6,26.2c-28.3,17.5-50.6,42.1-66.9,74C8.2,134.8,0,172.5,0,216
		c0,41.6,7.4,77.6,22.2,107.8C37,353.9,58.7,377,87.2,392.9c28.5,15.9,62.8,23.9,102.9,23.9c18,0,34.1-2.7,48.4-8.2
		c14.2-5.4,27.9-12.6,41.1-21.6c6.7-4.5,11.5-7.3,14.3-8.5c2.8-1.1,5.5-1.7,8.2-1.7c2.1,0,3.9,0.7,5.6,2c0.2,0.1,0.3,0.3,0.5,0.4
		L270,239.5z"/>
</g>
</svg>
